<svg xmlns="http://www.w3.org/2000/svg" viewBox="0 0 1032.9 766.13"><defs><style>.cls-1{fill:#93deff;stroke:#93deff;stroke-width:11px;}.cls-1,.cls-2{stroke-miterlimit:10;}.cls-2{fill:#77d985;stroke:#77d985;stroke-width:12px;}</style></defs><title>Fox Logo</title><g id="Layer_2" data-name="Layer 2"><g id="Layer_1-2" data-name="Layer 1"><g id="Blue"><path class="cls-1" d="M853.45,139.2C860.17,143,867,146.93,872.76,152c9,7.84,17.16,16.63,25.62,25.08,10.61,10.61,17.54,23.85,26,36,4.57,6.52,11.32,11.93,18,16.45a345.11,345.11,0,0,0,34.76,20.59c11.42,5.88,23.58,10.29,35.26,15.69a69.16,69.16,0,0,1,13.07,8c1.37,1,2.27,4.32,1.69,6-3.09,8.93-7.05,17-16.16,22.09-4.08,2.26-6.44,7.65-9.52,11.66-1.59,2.08-3,4.27-4.58,6.39a32.06,32.06,0,0,0-3.14,4.32c-1,2-.9,5.19-2.32,6-3.65,2-8.25,4.72-11.78,4-14.19-3.05-27.57.78-41,3.58-22.86,4.77-45.53,10.48-68.36,15.41-9.19,2-18.56,3.81-27.91,4.2-9.63.4-14.11,6.13-18.81,13.14-11.64,17.37-17.23,36.84-21,57-.92,4.88-2.08,9.71-2.86,14.61-2,12.34,3.3,22.38,9.31,32.73,9.85,17,18.89,34.54,23.62,53.79,4.25,17.36,9.14,34.68,9,52.78a12.45,12.45,0,0,1-2.37,7.23c-9.3,12.71-22,22-33.53,32.38-16.38,14.81-34.79,26.69-54.45,36.44-19.43,9.63-40,16.81-61.45,20a169.53,169.53,0,0,1-50.79.41c-10.21-1.57-20.61-3.41-30.25-7-13.22-4.86-24.52-13.41-34.89-23-6.4-5.92-12.7-12-19.33-18.2,7.39-3.51,14.07-5.76,19.74-9.54,15.8-10.54,30.46-22.28,40.31-39.19,5.25-9,12.49-16.87,17.83-25.84,12.35-20.76,22.6-42.59,27.44-66.41,1.41-7,.35-14.49.17-21.75-.09-3.95-3.42-5.39-6.42-6.79-14.67-6.87-29.46-13.47-44-20.55-13.62-6.63-27.34-13.19-40.35-20.91-5.44-3.23-9.53-9.07-13.53-14.26-5-6.47-8.83-13.81-13.91-20.19S530.75,372,525,366.06c-8.17-8.38-16.52-16.59-24.81-24.85-2.45-2.44-4.63-5.39-7.53-7.09-5.3-3.09-4.77-6.69-2.82-11.54,7.64-19,14.79-38.25,22.48-57.26q11.76-29,24.22-57.78c5-11.59,10.85-22.85,16.09-34.35,2.49-5.46,7.58-7.59,12.24-10.14,18-9.87,36.3-19.4,54.34-29.29,9.34-5.12,18.9-10.07,27.48-16.3,9.61-7,14.83-17.79,20.88-27.79C675,77.31,682.81,65.14,690.64,53c5.81-9,11.58-18,17.92-26.64a66.08,66.08,0,0,1,24.53-20c3.72-1.83,6.23-.85,7.42,2.8,4.16,12.82,8.76,25.55,12,38.61,4.09,16.54,1.17,17.86,9,33.16l.3.59a.86.86,0,0,0,1.6-.19c4.77-20,8.47-20.72,15.69-29.46,8.47-10.25,17.72-19.85,26.38-29.95a88.7,88.7,0,0,0,6.84-9.65c1.36-2.1,2.56-4.26,4-6.33a.57.57,0,0,1,1.05.23C819,16.46,821.63,26.65,822.46,37c1.27,15.83,1.72,31.74,2,47.62.18,9.42-.53,18.85-1.13,28.26-.07,1.06-2.24,9.07-2.76,10.8Z"/></g><g id="Green"><path class="cls-2" d="M128.09,316.06C110.16,282.81,94,248.89,87.39,211.27a.37.37,0,0,1,.52-.4c2.37,1.23,9.07,4.55,11.26,5.88,13.66,7.94,23.06,13.24,37.32,19.64,5.7,2.56,11.59,4.68,19.23,7.73L160.4,240c-2.08-14.7-4-29.48-4.9-44.29-1.05-18.21-2.28-23.9,13.72-19.18,20.1,5.92,37.64,16.35,53.7,29.72,12.14,10.09,24.76,19.62,37.32,29.19,9.9,7.54,21.62,9.5,33.68,10.22,26.7,1.59,41.46,3.28,68.16,4.84,17.34,1.81,33,5.15,42,11,13.94,9,21,16.42,33.4,27.43,9.26,8.19,17.82,17.17,26.68,25.82,9.55,9.32,19.14,18.59,28.61,28,8.7,8.66,17.25,17.46,25.86,26.21,5.87,6,13,11.18,17.29,18.1,6.54,10.42,13.21,20.6,21.83,29.34,4.12,4.19,8.47,8.64,13.6,11.26,20.15,10.33,40.64,20,61,29.86,5.51,2.66,11,5.44,16.68,7.61,4.42,1.69,5.32,5,5.51,8.92.67,14.21-3.66,27.39-9.08,40.14-5.08,12-10.9,23.61-16.73,35.23-2.14,4.24-5.15,8.06-7.93,12-7.59,10.58-14.38,21.91-23.14,31.42-12.31,13.37-26.48,24.79-44.54,30.08-3.62,1.06-7,2.81-10.6,4-10.61,3.62-21.18,7.37-31.9,10.6a132.46,132.46,0,0,0-33.9,16,111.74,111.74,0,0,1-18.55,9.71c-9.21,3.73-16.4,10.29-24.47,15.66-21.23,14.14-36.47,34.33-54.09,52.11-7.22,7.3-15,14.11-19.59,23.79-1.12,2.38-4.83,3.89-7.66,5-2.22.87-4.62.57-6.11-2.47-10.29-21.08-21.07-41.93-31.08-63.14-5.77-12.24-10.39-25-15.52-37.57a23.6,23.6,0,0,0-1.17-3.28c-6.31-10.48.47-19.1,3.89-28.23,3.58-9.55,7.16-19.1,10.58-28.71,2.51-7.08,1.78-14.26.49-21.52-3.92-22.15-16.41-37.24-37.08-45.76-9.72-4-19.72-6.84-30.31-7.08l-.27-1.32c-14.32,2.8-28.8,5-42.92,8.55-21.27,5.4-42.53,11.07-63.34,18-13.39,4.47-26,11.38-38.89,17.29-10.11,4.63-20.09,9.53-30.23,14.09-5.66,2.54-10.4.87-14.59-3.66-1.63-1.77-4.29-3.64-6.47-3.62-5.89.05-9.48-3.14-13-7.1-.91-1-2.27-2.22-3.51-2.34-5-.46-9.4-2.42-14.06-3.84-7-2.14-9.41-7.78-12.55-13a4.72,4.72,0,0,1,.34-4c8.18-13.67,18.5-25.57,29.56-37,13.11-13.58,25.56-28,33-45.56,3.9-9.22,5.37-19.57,7.17-29.55,3.75-20.87,7.89-41.66,18.28-60.39,5-9.08,11.57-17.34,17.56-25.88,3.69-5.28,7.47-10.52,11.53-15.51,1.69-2.08,4-4.42,6.38-5.06Z"/></g></g></g></svg>